{"title":"Marius.2013.720p.BRRip.x264-Fastbet99","uid":9252088,"size":1257438777,"categoryP":"video","categoryS":"hd___movies","magnet":"?xt=urn:btih:0e18f6fdb4577841c80db3d36433ef61446e6092&amp;dn=Marius.2013.720p.BRRip.x264-Fastbet99&amp;tr=udp%3A%2F%2Ftracker.openbittorrent.com%3A80&amp;tr=udp%3A%2F%2Fopen.demonii.com%3A1337&amp;tr=udp%3A%2F%2Ftracker.coppersurfer.tk%3A6969&amp;tr=udp%3A%2F%2Fexodus.desync.com%3A6969","seeders":2,"leechers":0,"uploader":"Fastbet99","files":-1,"time":1385482005,"description":"Marius (2013)\n\nIMDB Info\t\t\t\t : http://www.imdb.com/title/tt1872102\n\nSource\t\t\t\t\t : ROUGH (Thanks)\nComplete name                            : Marius.2013.720p.BRRip.x264-Fastbet99.mp4\nFormat                                   : MPEG-4\nFormat profile                           : Base Media\nCodec ID                                 : isom\nFile size                                : 1.17 GiB\nDuration                                 : 1h 33mn\nOverall bit rate mode                    : Variable\nOverall bit rate                         : 1 786 Kbps\n\nVideo\nID                                       : 1\nFormat                                   : AVC\nFormat/Info                              : Advanced Video Codec\nFormat profile                           : &lt;a class=&quot;__cf_email__&quot; href=&quot;/cdn-cgi/l/email-protection&quot; data-cfemail=&quot;8ac2e3ede2cac6bea4bb&quot;&gt;[email&amp;#160;protected]&lt;/a&gt;&lt;script cf-hash='f9e31' type=&quot;text/javascript&quot;&gt;\n/* &lt;![CDATA[ */!function(){try{var t=&quot;currentScript&quot;in document?document.currentScript:function(){for(var t=document.getElementsByTagName(&quot;script&quot;),e=t.length;e--;)if(t[e].getAttribute(&quot;cf-hash&quot;))return t[e]}();if(t&amp;&amp;t.previousSibling){var e,r,n,i,c=t.previousSibling,a=c.getAttribute(&quot;data-cfemail&quot;);if(a){for(e=&quot;&quot;,r=parseInt(a.substr(0,2),16),n=2;a.length-n;n+=2)i=parseInt(a.substr(n,2),16)^r,e+=String.fromCharCode(i);e=document.createTextNode(e),c.parentNode.replaceChild(e,c)}}}catch(u){}}();/* ]]&gt; */&lt;/script&gt;\nFormat settings, CABAC                   : Yes\nFormat settings, ReFrames                : 4 frames\nCodec ID                                 : avc1\nCodec ID/Info                            : Advanced Video Coding\nDuration                                 : 1h 33mn\nBit rate                                 : 1 688 Kbps\nMaximum bit rate                         : 8 191 Kbps\nWidth                                    : 1 280 pixels\nHeight                                   : 688 pixels\nDisplay aspect ratio                     : 1.85:1\nFrame rate mode                          : Constant\nFrame rate                               : 24.000 fps\nColor space                              : YUV\nChroma subsampling                       : 4:2:0\nBit depth                                : 8 bits\nScan type                                : Progressive\nBits/(Pixel*Frame)                       : 0.080\nStream size                              : 1.11 GiB (94%)\nWriting library                          : x264 core 133 r2334 a3ac64b\n\nAudio\nID                                       : 2\nFormat                                   : AAC\nFormat/Info                              : Advanced Audio Codec\nFormat profile                           : LC\nCodec ID                                 : 40\nDuration                                 : 1h 33mn\nBit rate mode                            : Variable\nBit rate                                 : 96.0 Kbps\nMaximum bit rate                         : 155 Kbps\nChannel(s)                               : 2 channels\nChannel positions                        : Front: L R\nSampling rate                            : 48.0 KHz\nCompression mode                         : Lossy\nStream size                              : 64.4 MiB (5%)\nLanguage                                 : French\nEncoder\t\t\t\t\t : Fastbet99\n\nScreenshots\n &lt;a href=&quot;\nhttp://lookpic.com/O/i2/33/9rTAfQn1.jpeg&quot; rel=&quot;nofollow&quot; target=&quot;_NEW&quot;&gt;\nhttp://lookpic.com/O/i2/33/9rTAfQn1.jpeg&lt;/a&gt;\n\nStairway To heaven - Help People With Keep Seed As Long You Can","torrent":{"xt":"urn:btih:0e18f6fdb4577841c80db3d36433ef61446e6092","amp;dn":"Marius.2013.720p.BRRip.x264-Fastbet99","amp;tr":["udp%3A%2F%2Ftracker.openbittorrent.com%3A80","udp%3A%2F%2Fopen.demonii.com%3A1337","udp%3A%2F%2Ftracker.coppersurfer.tk%3A6969","udp%3A%2F%2Fexodus.desync.com%3A6969"],"infoHash":"0e18f6fdb4577841c80db3d36433ef61446e6092","infoHashBuffer":{"type":"Buffer","data":[14,24,246,253,180,87,120,65,200,13,179,211,100,51,239,97,68,110,96,146]},"announce":[],"urlList":[]}}